<svg viewBox="0 0 16 16" fill="none" xmlns="http://www.w3.org/2000/svg">
<path fill-rule="evenodd" clip-rule="evenodd" d="M13.1547 3.07178C12.4402 1.83417 11.1197 1.07178 9.69062 1.07178H6.30942C4.88036 1.07178 3.55985 1.83417 2.84532 3.07178L1.15472 5.99998C0.440187 7.23758 0.440187 8.76238 1.15472 9.99998L2.84532 12.9282C3.55985 14.1658 4.88036 14.9282 6.30942 14.9282H9.69062C11.1197 14.9282 12.4402 14.1658 13.1547 12.9282L14.8453 9.99998C15.5598 8.76238 15.5598 7.23758 14.8453 5.99998L13.1547 3.07178ZM7.99999 10.75C9.51877 10.75 10.75 9.51876 10.75 7.99998C10.75 6.4812 9.51877 5.24998 7.99999 5.24998C6.48121 5.24998 5.24999 6.4812 5.24999 7.99998C5.24999 9.51876 6.48121 10.75 7.99999 10.75Z" fill="white"/>
</svg>
