<svg viewBox="0 0 64 64" fill="none" xmlns="http://www.w3.org/2000/svg">
<path fill-rule="evenodd" clip-rule="evenodd" d="M60 9.90625L54.0938 4V7.71875H51.25V8.36689L51.0563 8.33282L48.7344 6.95312L10.9965 7.05733L5.96878 6.95312V35.9375L7.55957 45.659L7.50003 50.375L8.37562 50.646L8.9398 54.0938H4L9.90628 60H30.6875V51.8256H60L60 9.90625ZM17.205 53.3785L8.37562 50.646L7.55957 45.659L8.0469 7.06547L10.9965 7.05733L48.1875 7.82812L51.0563 8.33282L51.25 8.4479V45.0111H28.6369V42.9003H30.5994V43.1523H32.4156C33.6624 43.1523 35.0461 43.0636 36.4112 42.9333C37.3356 43.253 38.2951 43.4802 39.2194 43.3437L39.2747 43.3355V42.6043C38.3686 42.7239 37.3947 42.8394 36.4112 42.9333C36.2113 42.8642 36.013 42.7907 35.817 42.7157C36.8519 42.619 37.9039 42.493 38.8942 42.3596C41.6781 42.5909 44.0372 42.862 44.0372 42.862V41.5379C44.0372 41.5379 41.9217 41.9401 39.2747 42.3075C39.149 42.3249 39.0221 42.3423 38.8942 42.3596C37.317 42.2285 35.6034 42.1101 34.1052 42.0609C33.6186 41.8966 33.167 41.7848 32.7656 41.7848H30.5994V42.0368H28.6369V42.9003H23.6494V49.1515L20.8438 50.7031L17.205 53.3785ZM30.5994 42.0368H32.7656C33.1835 42.0368 33.6337 42.0455 34.1052 42.0609C34.4615 42.1813 34.8364 42.3298 35.2242 42.4834L35.2243 42.4835C35.4189 42.5606 35.6168 42.6389 35.817 42.7157C34.6198 42.8275 33.4454 42.9003 32.4156 42.9003H30.5994V42.0368Z" fill="#B2BACD"/>
<path fill-rule="evenodd" clip-rule="evenodd" d="M54.0938 4H4V54.0938H24.7812V46H54.0938V4ZM26.5415 19.3304H19.9628V49.4989H8.59375V8.59375H49.5V41.4062H22.5938L22.5378 31.9835H26.5415C32.7656 31.9835 38.3589 30.6875 38.3589 30.6875V17.968C38.3589 17.968 35.2586 18.6384 32.7656 18.9844C30.2726 19.3304 26.5415 19.3304 26.5415 19.3304Z" fill="#B2BACD"/>
</svg>
